<?xml version="1.0" encoding="UTF-8"?>
<svg xmlns="http://www.w3.org/2000/svg" style="height: 0; width: 0; position: absolute; visibility: hidden">
  <symbol id="user" class="h-6 w-6" fill="none" viewBox="0 0 24 24" stroke="currentColor">
    <path stroke-linecap="round" stroke-linejoin="round" stroke-width="2" d="M16 7a4 4 0 11-8 0 4 4 0 018 0zM12 14a7 7 0 00-7 7h14a7 7 0 00-7-7z" />
  </symbol>

  <symbol id="pencil-fill" class="h-5 w-5" viewBox="0 0 20 20" fill="currentColor">
    <path d="M13.586 3.586a2 2 0 112.828 2.828l-.793.793-2.828-2.828.793-.793zM11.379 5.793L3 14.172V17h2.828l8.38-8.379-2.83-2.828z" />
  </symbol>

  <symbol id="logo" class="h-5 w-5" viewBox="0 0 20 20" fill="currentColor">
    <polyline points="2,16 2,4 10,10 18,4 18,16" fill="none" stroke="#2E4053" />
    <polyline points="16,16 16,8 8,16 16,16" fill="#154360" />
    <polyline points="4,16 4,8 10,12" fill="#138D75" />
  </symbol>

  <symbol id="usersColor" x="0px" y="0px" viewBox="0 0 448.943 448.943" style="enable-background:new 0 0 448.943 448.943;" xml:space="preserve">
    <g>
      <g id="XMLID_27_">
        <path style="fill:#1EA6C6;" d="M246.375,255.051c20.52,0,40.39-7.91,57.98-22.75v62.53h-26.9v125.4c-10.16,1.39-20.54,2.11-31.08,2.11c-58.79,0-112.38-22.3-152.75-58.91v-0.13c0-60.89,35.63-113.45,87.17-137.98 C200.165,244.641,222.845,255.051,246.375,255.051z"/>
        <path style="fill:#008DB3;" d="M382.945,294.83h-24.55l-49.38-66.66c0.99-0.93,1.98-1.88,2.95-2.85 C342.665,239.931,367.715,264.491,382.945,294.83z"/>
        <path style="fill:#FCD09F;" d="M246.375,33.005c46.66,0,84.49,37.82,84.49,84.48c0,46.67-37.83,110.49-84.49,110.49s-84.49-63.82-84.49-110.49C161.885,70.825,199.715,33.005,246.375,33.005z"/>
      </g>
      <g id="XMLID_22_">
        <path style="fill:#EF806F;" d="M175.17,198.272c2.59,3.69,5.27,7.15,8.04,10.4l-8.43,4.01c-28.06,13.35-51.8,34.24-68.67,60.41c-13.72,21.29-22.32,45.29-25.31,70.31c-30.49-8.31-58.05-23.72-80.8-44.35v-0.11c0-53.06,31.05-98.86,75.96-120.24c16.88,16.84,36.64,25.91,57.14,25.91c13.43,0,26.55-3.89,38.74-11.31C172.91,194.982,174.03,196.642,175.17,198.272z"/>
        <path style="fill:#EFC59C;" d="M147.89,117.482c0,17.54,4.56,36.84,12.68,54.98c-8.49,5.38-17.76,8.55-27.47,8.55c-40.66,0-73.62-55.61-73.62-96.28c0-40.66,32.96-73.61,73.62-73.61c22.55,0,42.74,10.14,56.24,26.11 C164.27,55.112,147.89,84.422,147.89,117.482z"/>
      </g>
      <polygon style="fill:#EF806F;" points="351.348,308.827 318.35,264.293 318.35,308.827 291.451,308.827 291.451,437.821 448.943,437.821 448.943,308.827 	"/>
      <rect x="322.949" y="347.988" style="fill:#FFFFFF;" width="94.495" height="15"/>
      <rect x="322.949" y="383.986" style="fill:#FFFFFF;" width="94.495" height="15"/>
    </g>
  </symbol>

  <symbol id="localColor" x="0px" y="0px" viewBox="0 0 279.923 279.923" style="enable-background:new 0 0 279.923 279.923;" xml:space="preserve">
    <g>
      <path style="fill:#4ED5BD;" d="M279.634,279.739L218.5,183.715l-156.658,0.184l-61.553,95.84l140.355,0.184L279.634,279.739z"/>
      <path style="fill:#F4B459;" d="M140.302,0C91.998,0,52.838,37.042,52.838,82.739c0,1.82,1.654,26.48,8.086,37.594c21.641,46.94,79.291,98.692,79.379,98.508c0.079,0.271,57.974-51.788,79.51-98.771c7.517-15.165,7.955-36.439,7.955-37.331 C227.767,37.051,188.607,0,140.302,0z M140.294,122.547c-19.331,0-35.003-15.673-35.003-35.003s15.673-35.003,35.003-35.003s35.003,15.673,35.003,35.003S159.624,122.547,140.294,122.547z"/>
      <path style="fill:#CCA032;" d="M140.294,43.789c-24.161,0-43.754,19.584-43.754,43.754c0,24.179,19.593,43.754,43.754,43.754c24.179,0,43.754-19.584,43.754-43.754C184.048,63.382,164.472,43.789,140.294,43.789z M140.294,113.796c-14.5,0-26.253-11.752-26.253-26.253c0-14.491,11.752-26.253,26.253-26.253c14.5,0,26.253,11.761,26.253,26.253 C166.546,102.044,154.794,113.796,140.294,113.796z"/>
      <path style="fill:#26A6D1;" d="M201.55,245.059c-10.947,4.892-34.583,8.891-43.903,8.856c-8.033-0.053-32.448-5.18-43.606-8.856c-1.068-0.341-31.276-15.191-52.505-17.502c-22.087-2.371-26.253,0-26.253,0l-7.543,9.433L0.289,279.739l140.355,0.184 l138.99-0.184l-37.55-58.963C232.361,226.682,203.466,244.201,201.55,245.059z"/>
    </g>
  </symbol>

  <symbol id="serverColor" x="0px" y="0px" viewBox="0 0 59 59" style="enable-background:new 0 0 59 59;" xml:space="preserve">
    <g>
      <path style="fill:#556080;" d="M54.892,19H4.108C2.116,19,0.5,17.384,0.5,15.392V3.608C0.5,1.616,2.116,0,4.108,0h50.783 C56.884,0,58.5,1.616,58.5,3.608v11.783C58.5,17.384,56.884,19,54.892,19z"/>
      <path style="fill:#38454F;" d="M54.892,38H4.108C2.116,38,0.5,36.384,0.5,34.392V22.608C0.5,20.616,2.116,19,4.108,19h50.783c1.993,0,3.608,1.616,3.608,3.608v11.783C58.5,36.384,56.884,38,54.892,38z"/>
      <path style="fill:#556080;" d="M54.892,57H4.108C2.116,57,0.5,55.384,0.5,53.392V41.608C0.5,39.616,2.116,38,4.108,38h50.783c1.993,0,3.608,1.616,3.608,3.608v11.783C58.5,55.384,56.884,57,54.892,57z"/>
      <circle style="fill:#8697CB;" cx="10" cy="9.5" r="3.5"/>
      <circle style="fill:#8697CB;" cx="49.5" cy="8" r="1"/>
      <circle style="fill:#8697CB;" cx="45.5" cy="8" r="1"/>
      <circle style="fill:#8697CB;" cx="51.5" cy="11" r="1"/>
      <circle style="fill:#8697CB;" cx="47.5" cy="11" r="1"/>
      <circle style="fill:#8697CB;" cx="41.5" cy="8" r="1"/>
      <circle style="fill:#8697CB;" cx="43.5" cy="11" r="1"/>
      <circle style="fill:#8697CB;" cx="37.5" cy="8" r="1"/>
      <circle style="fill:#8697CB;" cx="39.5" cy="11" r="1"/>
      <circle style="fill:#8697CB;" cx="33.5" cy="8" r="1"/>
      <circle style="fill:#8697CB;" cx="35.5" cy="11" r="1"/>
      <circle style="fill:#8697CB;" cx="10" cy="28.5" r="3.5"/>
      <circle style="fill:#8697CB;" cx="49.5" cy="27" r="1"/>
      <circle style="fill:#8697CB;" cx="45.5" cy="27" r="1"/>
      <circle style="fill:#8697CB;" cx="51.5" cy="30" r="1"/>
      <circle style="fill:#8697CB;" cx="47.5" cy="30" r="1"/>
      <circle style="fill:#8697CB;" cx="41.5" cy="27" r="1"/>
      <circle style="fill:#8697CB;" cx="43.5" cy="30" r="1"/>
      <circle style="fill:#8697CB;" cx="37.5" cy="27" r="1"/>
      <circle style="fill:#8697CB;" cx="39.5" cy="30" r="1"/>
      <circle style="fill:#8697CB;" cx="33.5" cy="27" r="1"/>
      <circle style="fill:#8697CB;" cx="35.5" cy="30" r="1"/>
      <circle style="fill:#8697CB;" cx="10" cy="47.5" r="3.5"/>
      <circle style="fill:#8697CB;" cx="49.5" cy="46" r="1"/>
      <circle style="fill:#8697CB;" cx="45.5" cy="46" r="1"/>
      <circle style="fill:#8697CB;" cx="51.5" cy="49" r="1"/>
      <circle style="fill:#8697CB;" cx="47.5" cy="49" r="1"/>
      <circle style="fill:#8697CB;" cx="41.5" cy="46" r="1"/>
      <circle style="fill:#8697CB;" cx="43.5" cy="49" r="1"/>
      <circle style="fill:#8697CB;" cx="37.5" cy="46" r="1"/>
      <circle style="fill:#8697CB;" cx="39.5" cy="49" r="1"/>
      <circle style="fill:#8697CB;" cx="33.5" cy="46" r="1"/>
      <circle style="fill:#8697CB;" cx="35.5" cy="49" r="1"/>
    </g>
  </symbol>

  <symbol id="serverColorInfo" x="0px" y="0px" viewBox="0 0 59 59" style="enable-background:new 0 0 59 59;" xml:space="preserve">
    <g>
      <path style="fill:#556080;" d="M54.892,19H4.108C2.116,19,0.5,17.384,0.5,15.392V3.608C0.5,1.616,2.116,0,4.108,0h50.783 C56.884,0,58.5,1.616,58.5,3.608v11.783C58.5,17.384,56.884,19,54.892,19z"/>
      <path style="fill:#38454F;" d="M54.892,38H4.108C2.116,38,0.5,36.384,0.5,34.392V22.608C0.5,20.616,2.116,19,4.108,19h50.783c1.993,0,3.608,1.616,3.608,3.608v11.783C58.5,36.384,56.884,38,54.892,38z"/>
      <path style="fill:#556080;" d="M54.892,57H4.108C2.116,57,0.5,55.384,0.5,53.392V41.608C0.5,39.616,2.116,38,4.108,38h50.783c1.993,0,3.608,1.616,3.608,3.608v11.783C58.5,55.384,56.884,57,54.892,57z"/>
      <circle style="fill:#8697CB;" cx="10" cy="9.5" r="3.5"/>
      <circle style="fill:#8697CB;" cx="49.5" cy="8" r="1"/>
      <circle style="fill:#8697CB;" cx="45.5" cy="8" r="1"/>
      <circle style="fill:#8697CB;" cx="51.5" cy="11" r="1"/>
      <circle style="fill:#8697CB;" cx="47.5" cy="11" r="1"/>
      <circle style="fill:#8697CB;" cx="41.5" cy="8" r="1"/>
      <circle style="fill:#8697CB;" cx="43.5" cy="11" r="1"/>
      <circle style="fill:#8697CB;" cx="37.5" cy="8" r="1"/>
      <circle style="fill:#8697CB;" cx="39.5" cy="11" r="1"/>
      <circle style="fill:#8697CB;" cx="33.5" cy="8" r="1"/>
      <circle style="fill:#8697CB;" cx="35.5" cy="11" r="1"/>
      <circle style="fill:#8697CB;" cx="10" cy="28.5" r="3.5"/>
      <circle style="fill:#8697CB;" cx="49.5" cy="27" r="1"/>
      <circle style="fill:#8697CB;" cx="45.5" cy="27" r="1"/>
      <circle style="fill:#8697CB;" cx="51.5" cy="30" r="1"/>
      <circle style="fill:#8697CB;" cx="47.5" cy="30" r="1"/>
      <circle style="fill:#8697CB;" cx="41.5" cy="27" r="1"/>
      <circle style="fill:#8697CB;" cx="43.5" cy="30" r="1"/>
      <circle style="fill:#8697CB;" cx="37.5" cy="27" r="1"/>
      <circle style="fill:#8697CB;" cx="39.5" cy="30" r="1"/>
      <circle style="fill:#8697CB;" cx="33.5" cy="27" r="1"/>
      <circle style="fill:#8697CB;" cx="35.5" cy="30" r="1"/>
      <circle style="fill:#8697CB;" cx="10" cy="47.5" r="3.5"/>
      <circle style="fill:#8697CB;" cx="49.5" cy="46" r="1"/>
      <circle style="fill:#8697CB;" cx="45.5" cy="46" r="1"/>
      <circle style="fill:#8697CB;" cx="51.5" cy="49" r="1"/>
      <circle style="fill:#8697CB;" cx="47.5" cy="49" r="1"/>
      <circle style="fill:#8697CB;" cx="41.5" cy="46" r="1"/>
      <circle style="fill:#8697CB;" cx="43.5" cy="49" r="1"/>
      <circle style="fill:#8697CB;" cx="37.5" cy="46" r="1"/>
      <circle style="fill:#8697CB;" cx="39.5" cy="49" r="1"/>
      <circle style="fill:#8697CB;" cx="33.5" cy="46" r="1"/>
      <circle style="fill:#8697CB;" cx="35.5" cy="49" r="1"/>
    </g>
    <g>
      <path style="fill:#EFC41A;" d="M57.261,59H33.57c-0.955,0-1.55-1.036-1.069-1.861l11.845-20.306c0.478-0.819,1.66-0.819,2.138,0 L58.33,57.139C58.811,57.964,58.216,59,57.261,59z"/>
      <path style="fill:#FFFFFF;" d="M45.5,52c-0.552,0-1-0.448-1-1v-8c0-0.552,0.448-1,1-1s1,0.448,1,1v8	C46.5,51.552,46.052,52,45.5,52z"/>
      <path style="fill:#FFFFFF;" d="M45.5,56c-0.26,0-0.52-0.11-0.71-0.29c-0.18-0.19-0.29-0.45-0.29-0.71c0-0.26,0.11-0.52,0.29-0.71c0.38-0.37,1.04-0.37,1.42,0c0.18,0.19,0.29,0.45,0.29,0.71c0,0.26-0.11,0.52-0.29,0.71C46.02,55.89,45.77,56,45.5,56z"/>
    </g>
  </symbol>

  <symbol id="serverColorPlus" x="0px" y="0px" viewBox="0 0 59 59" style="enable-background:new 0 0 59 59;" xml:space="preserve">
    <g>
      <path style="fill:#556080;" d="M54.392,19H3.608C1.616,19,0,17.384,0,15.392V3.608C0,1.616,1.616,0,3.608,0h50.783 C56.384,0,58,1.616,58,3.608v11.783C58,17.384,56.384,19,54.392,19z"/>
      <path style="fill:#38454F;" d="M54.392,38H3.608C1.616,38,0,36.384,0,34.392V22.608C0,20.616,1.616,19,3.608,19h50.783 C56.384,19,58,20.616,58,22.608v11.783C58,36.384,56.384,38,54.392,38z"/>
      <path style="fill:#556080;" d="M54.392,57H3.608C1.616,57,0,55.384,0,53.392V41.608C0,39.616,1.616,38,3.608,38h50.783 C56.384,38,58,39.616,58,41.608v11.783C58,55.384,56.384,57,54.392,57z"/>
      <circle style="fill:#8697CB;" cx="9.5" cy="9.5" r="3.5"/>
      <circle style="fill:#8697CB;" cx="49" cy="8" r="1"/>
      <circle style="fill:#8697CB;" cx="45" cy="8" r="1"/>
      <circle style="fill:#8697CB;" cx="51" cy="11" r="1"/>
      <circle style="fill:#8697CB;" cx="47" cy="11" r="1"/>
      <circle style="fill:#8697CB;" cx="41" cy="8" r="1"/>
      <circle style="fill:#8697CB;" cx="43" cy="11" r="1"/>
      <circle style="fill:#8697CB;" cx="37" cy="8" r="1"/>
      <circle style="fill:#8697CB;" cx="39" cy="11" r="1"/>
      <circle style="fill:#8697CB;" cx="33" cy="8" r="1"/>
      <circle style="fill:#8697CB;" cx="35" cy="11" r="1"/>
      <circle style="fill:#8697CB;" cx="9.5" cy="28.5" r="3.5"/>
      <circle style="fill:#8697CB;" cx="49" cy="27" r="1"/>
      <circle style="fill:#8697CB;" cx="45" cy="27" r="1"/>
      <circle style="fill:#8697CB;" cx="51" cy="30" r="1"/>
      <circle style="fill:#8697CB;" cx="47" cy="30" r="1"/>
      <circle style="fill:#8697CB;" cx="41" cy="27" r="1"/>
      <circle style="fill:#8697CB;" cx="43" cy="30" r="1"/>
      <circle style="fill:#8697CB;" cx="37" cy="27" r="1"/>
      <circle style="fill:#8697CB;" cx="39" cy="30" r="1"/>
      <circle style="fill:#8697CB;" cx="33" cy="27" r="1"/>
      <circle style="fill:#8697CB;" cx="35" cy="30" r="1"/>
      <circle style="fill:#8697CB;" cx="9.5" cy="47.5" r="3.5"/>
      <circle style="fill:#8697CB;" cx="49" cy="46" r="1"/>
      <circle style="fill:#8697CB;" cx="45" cy="46" r="1"/>
      <circle style="fill:#8697CB;" cx="51" cy="49" r="1"/>
      <circle style="fill:#8697CB;" cx="47" cy="49" r="1"/>
      <circle style="fill:#8697CB;" cx="41" cy="46" r="1"/>
      <circle style="fill:#8697CB;" cx="43" cy="49" r="1"/>
      <circle style="fill:#8697CB;" cx="37" cy="46" r="1"/>
      <circle style="fill:#8697CB;" cx="39" cy="49" r="1"/>
      <circle style="fill:#8697CB;" cx="33" cy="46" r="1"/>
      <circle style="fill:#8697CB;" cx="35" cy="49" r="1"/>
      <g>
        <circle style="fill:#71C386;" cx="47" cy="47" r="12"/>
        <path style="fill:#FFFFFF;" d="M53,46h-5v-5c0-0.552-0.448-1-1-1s-1,0.448-1,1v5h-5c-0.552,0-1,0.448-1,1s0.448,1,1,1h5v5
          c0,0.552,0.448,1,1,1s1-0.448,1-1v-5h5c0.552,0,1-0.448,1-1S53.552,46,53,46z"/>
      </g>
    </g>
  </symbol>


  <symbol id="laptop" width="24px" height="24px" viewBox="0 0 24 24">
    <g transform="translate(0 -1028.4)">
      <rect height="1" width="24" y="1047.4" x="0" fill="#95a5a6"/>
      <path d="m4 1033.4c-0.5523 0-1 0.4-1 1v1 7 1 1 2h2 14 2v-2-2-7-1c0-0.6-0.448-1-1-1h-1-13-1-1z" fill="#7f8c8d"/>
      <path d="m3 1046.4-3 1h3 18 3l-3-1h-18z" fill="#bdc3c7"/>
      <rect height="1" width="4" y="1047.4" x="10" fill="#7f8c8d"/>
      <rect height="11" width="16" y="1034.4" x="4" fill="#34495e"/>
      <path d="m20 1036.8-14.812 8.6h13.812 1v-1-7.6z" fill="#2c3e50"/>
    </g>
  </symbol>

  <symbol id="mapColor" x="0px" y="0px" viewBox="0 0 495 495" style="enable-background:new 0 0 495 495;" xml:space="preserve">
    <rect x="227.5" y="368.525" style="fill:#D8D7DA;" width="40" height="56.475"/>
    <rect x="110" y="425" style="fill:#C6C5CA;" width="275" height="40"/>
    <polygon style="fill:#006DF0;" points="0,30 0,161.699 131.698,30 	"/>
    <polygon style="fill:#006DF0;" points="247.5,230.979 244.06,227.539 193.074,278.525 247.5,278.525"/>
    <polygon style="fill:#006DF0;" points="204.106,78.236 172.068,46.198 0,218.268 0,278.525 3.818,278.525"/>
    <polygon style="fill:#006DF0;" points="215.776,199.254 177.717,161.195 60.387,278.525 136.505,278.525"/>
    <polygon style="fill:#006DF0;" points="247.5,34.843 247.5,30 212.438,30 232.391,49.952"/>
    <polygon style="fill:#006DF0;" points="206.001,132.911 247.5,174.41 247.5,91.412"/>
    <polygon style="fill:#004FAC;" points="390.947,30 495,134.053 495,30"/>
    <polygon style="fill:#004FAC;" points="252.343,30 247.5,30 247.5,34.843"/>
    <polygon style="fill:#004FAC;" points="247.5,174.41 287.715,214.625 403.359,98.981 334.377,30 308.912,30 247.5,91.412"/>
    <polygon style="fill:#004FAC;" points="295.046,278.525 247.5,230.979 247.5,278.525 	"/>
    <polygon style="fill:#004FAC;" points="316,242.91 351.615,278.525 495,278.525 495,190.623 431.643,127.266"/>
    <rect y="278.525" style="fill:#E0E0E2;" width="495" height="90"/>
    <polygon style="fill:#2488FF;" points="334.377,30 403.359,98.981 287.715,214.625 247.5,174.41 206.001,132.911 308.912,30 252.343,30 247.5,34.843 232.391,49.952 212.438,30 131.698,30 0,161.699 0,218.268 172.068,46.198 204.106,78.236 3.818,278.525 60.387,278.525 177.717,161.195 215.776,199.254 136.505,278.525 193.074,278.525 244.06,227.539 247.5,230.979 295.046,278.525 351.615,278.525 316,242.91 431.643,127.266 495,190.623 495,134.053 390.947,30"/>
  </symbol>
  <symbol id="setupColor" x="0px" y="0px" viewBox="0 0 512 512" style="enable-background:new 0 0 512 512;" xml:space="preserve">
  <path style="fill:#5A6B96;" d="M500.989,348.464v13.29c0,20.623-16.714,37.337-37.326,37.337H48.337c-20.612,0-37.326-16.714-37.326-37.337v-13.29H500.989z"/>
  <path style="fill:#EFEFEF;" d="M500.989,51.152v297.312H11.011V51.152c0-20.623,16.714-37.337,37.326-37.337h415.326 C484.275,13.815,500.989,30.529,500.989,51.152z"/>
  <path style="fill:#264087;" d="M333.075,498.184c-51.384,0-102.767,0-154.151,0c12.022-32.827,17.426-66.269,17.734-99.097c39.561,0,79.121,0,118.683,0C315.65,431.916,321.054,465.357,333.075,498.184z"/>
  <path style="fill:#45CCFF;" d="M382.624,206.789v-49.548h-33.514c-2.221-8.337-5.531-16.233-9.773-23.526l23.719-23.719 L328.019,74.96L304.3,98.679c-7.291-4.242-15.188-7.553-23.526-9.773V55.391h-49.548v33.515c-8.337,2.22-16.233,5.531-23.526,9.773 L183.981,74.96l-35.036,35.036l23.719,23.719c-4.242,7.291-7.553,15.188-9.773,23.526h-33.515v49.548h33.515c2.221,8.337,5.531,16.233,9.773,23.526l-23.719,23.719l35.036,35.036l23.719-23.719c7.291,4.242,15.188,7.553,23.526,9.773v33.514h49.548v-33.515c8.337-2.22,16.233-5.531,23.526-9.773l23.719,23.719l35.036-35.036l-23.719-23.719c4.242-7.291,7.553-15.188,9.773-23.526H382.624z M256,234.315c-28.885,0-52.301-23.415-52.301-52.301s23.417-52.301,52.301-52.301c28.886,0,52.301,23.415,52.301,52.301S284.885,234.315,256,234.315z"/>
  <g>
    <path style="fill:#231F20;" d="M463.663,2.804H48.337C21.683,2.804,0,24.493,0,51.152v310.602c0,26.659,21.683,48.348,48.337,48.348h136.991c-1.233,26.664-6.005,52.51-14.227,77.072h-33.467c-6.08,0-11.011,4.93-11.011,11.011c0,6.081,4.931,11.011,11.011,11.011h236.731c6.08,0,11.011-4.93,11.011-11.011c0-6.081-4.931-11.011-11.011-11.011h-33.468c-8.222-24.562-12.993-50.408-14.227-77.072h136.992c26.654,0,48.337-21.689,48.337-48.348V51.152C512,24.493,490.317,2.804,463.663,2.804z M22.022,51.152c0-14.517,11.806-26.327,26.316-26.327h415.326c14.511,0,26.316,11.81,26.316,26.327v286.302H22.022V51.152z M317.757,487.174 H194.243c7.592-24.704,11.996-50.528,13.14-77.072h97.233C305.761,436.646,310.165,462.471,317.757,487.174z M489.979,361.754c0,14.517-11.806,26.327-26.316,26.327H48.337c-14.511,0-26.316-11.81-26.316-26.327v-2.279h467.957V361.754z"/>
    <path style="fill:#231F20;" d="M382.624,146.23h-25.408c-1.263-3.564-2.715-7.06-4.35-10.472l17.975-17.975c4.3-4.3,4.3-11.272,0-15.571l-35.035-35.036c-4.3-4.3-11.269-4.3-15.573,0L302.257,85.15c-3.413-1.635-6.907-3.086-10.472-4.35 V55.391c0-6.081-4.931-11.011-11.011-11.011h-49.548c-6.08,0-11.011,4.93-11.011,11.011V80.8c-3.563,1.263-7.06,2.715-10.473,4.35l-17.974-17.975c-4.3-4.3-11.27-4.3-15.573,0l-35.036,35.036c-2.065,2.065-3.225,4.866-3.225,7.786s1.161,5.721,3.225,7.786 l17.975,17.975c-1.634,3.412-3.087,6.908-4.35,10.472h-25.407c-6.08,0-11.011,4.93-11.011,11.011v49.548c0,6.081,4.931,11.011,11.011,11.011h25.407c1.263,3.564,2.716,7.06,4.35,10.472l-17.975,17.975c-2.065,2.065-3.225,4.866-3.225,7.786c0,2.92,1.161,5.721,3.225,7.786l35.036,35.036c2.066,2.065,4.866,3.225,7.786,3.225s5.721-1.161,7.786-3.225l17.974-17.975c3.413,1.635,6.909,3.087,10.473,4.35v25.408c0,6.081,4.931,11.011,11.011,11.011h49.548c6.08,0,11.011-4.93,11.011-11.011V283.23c3.563-1.263,7.06-2.715,10.472-4.35l17.975,17.975c2.066,2.065,4.866,3.225,7.786,3.225c2.92,0,5.72-1.161,7.786-3.225l35.035-35.036c4.3-4.3,4.3-11.272,0-15.571l-17.975-17.975c1.635-3.412,3.087-6.908,4.35-10.472h25.411c6.08,0,11.011-4.93,11.011-11.011v-49.548C393.634,151.159,388.704,146.23,382.624,146.23z M371.613,195.778h-22.504c-4.989,0-9.356,3.355-10.64,8.178c-1.94,7.284-4.85,14.29-8.65,20.822c-2.513,4.32-1.802,9.789,1.731,13.323l15.934,15.934 L328.019,273.5l-15.934-15.934c-3.534-3.534-9.005-4.244-13.324-1.731c-6.532,3.801-13.537,6.711-20.82,8.65c-4.822,1.284-8.178,5.651-8.178,10.64v22.504h-27.527v-22.504c0-4.99-3.356-9.356-8.178-10.64c-7.284-1.939-14.29-4.85-20.822-8.651c-4.316-2.513-9.789-1.802-13.323,1.732L183.981,273.5l-19.465-19.465l15.934-15.934c3.533-3.533,4.244-9.003,1.731-13.324c-3.801-6.53-6.712-13.536-8.651-20.821c-1.284-4.822-5.651-8.178-10.64-8.178h-22.503v-27.527h22.504c4.989,0,9.356-3.355,10.64-8.178c1.94-7.285,4.85-14.291,8.651-20.821c2.513-4.32,1.802-9.79-1.731-13.324l-15.934-15.934l19.465-19.464l15.933,15.933c3.533,3.533,9.006,4.244,13.323,1.732c6.534-3.801,13.539-6.711,20.822-8.651c4.822-1.284,8.178-5.651,8.178-10.64V66.402h27.527v22.504c0,4.989,3.355,9.356,8.177,10.64c7.286,1.94,14.291,4.851,20.821,8.651c4.32,2.512,9.79,1.804,13.324-1.731l15.934-15.933l19.465,19.464l-15.934,15.934c-3.533,3.533-4.244,9.003-1.731,13.323c3.8,6.533,6.711,13.538,8.65,20.822c1.284,4.822,5.651,8.178,10.64,8.178h22.503V195.778z"/>
    <path style="fill:#231F20;" d="M255.999,118.703c-34.911,0-63.312,28.401-63.312,63.312s28.401,63.312,63.312,63.312s63.312-28.401,63.312-63.312S290.91,118.703,255.999,118.703z M255.999,223.305c-22.768,0-41.29-18.523-41.29-41.29s18.522-41.29,41.29-41.29s41.29,18.523,41.29,41.29S278.767,223.305,255.999,223.305z"/>
    <path style="fill:#231F20;" d="M456.58,189.546c-6.08,0-11.011,4.93-11.011,11.011v101.666c0,6.081,4.931,11.011,11.011,11.011s11.011-4.93,11.011-11.011V200.557C467.59,194.476,462.66,189.546,456.58,189.546z"/>
    <path style="fill:#231F20;" d="M456.58,146.391c-6.08,0-11.011,4.93-11.011,11.011v1.101c0,6.081,4.931,11.011,11.011,11.011s11.011-4.93,11.011-11.011v-1.101C467.59,151.321,462.66,146.391,456.58,146.391z"/>
  </g>
  </symbol>

  <symbol id="diskColor" x="0px" y="0px" viewBox="0 0 512 512" style="enable-background:new 0 0 512 512;" xml:space="preserve">
    <polygon style="fill:#515262;" points="450.564,0 398.209,0 241.811,167.75 241.811,167.75 136.28,0 14.466,0 14.466,510.817 497.534,510.817 497.534,37.531 "/>
    <rect x="136.432" y="0.552" style="fill:#DCE5FA;" width="262.169" height="167.17"/>
    <rect x="285.641" y="32.793" style="fill:#B4BBCC;" width="71.893" height="102.163"/>
    <path style="fill:#FFFFFF;" d="M444.561,231.469c0-10.812-8.765-19.575-19.575-19.575H98.366c-10.812,0-19.575,8.765-19.575,19.575v216.889c0,10.812,8.765,19.575,19.575,19.575h326.619c10.812,0,19.575-8.765,19.575-19.575V231.469H444.561z"/>
    <g>
      <path style="fill:#515262;" d="M408.93,273.697H120.097c-5.224,0-9.46-4.234-9.46-9.46s4.235-9.46,9.46-9.46H408.93c5.224,0,9.46,4.234,9.46,9.46S414.154,273.697,408.93,273.697z"/>
      <path style="fill:#515262;" d="M408.93,319.103H120.097c-5.224,0-9.46-4.234-9.46-9.46c0-5.225,4.235-9.46,9.46-9.46H408.93c5.224,0,9.46,4.234,9.46,9.46C418.389,314.869,414.154,319.103,408.93,319.103z"/>
      <path style="fill:#515262;" d="M408.93,364.509H120.097c-5.224,0-9.46-4.234-9.46-9.46c0-5.225,4.235-9.46,9.46-9.46H408.93c5.224,0,9.46,4.234,9.46,9.46C418.389,360.275,414.154,364.509,408.93,364.509z"/>
    </g>
    <g style="opacity:0.1;">
      <rect x="16.83" y="1.183" width="81.983" height="510.817"/>
    </g>
  </symbol>


  <symbol id="folderColor" x="0px" y="0px" viewBox="0 0 512 512" style="enable-background:new 0 0 512 512;" xml:space="preserve">
    <path id="SVGCleanerId_0" style="fill:#FFC36E;" d="M183.295,123.586H55.05c-6.687,0-12.801-3.778-15.791-9.76l-12.776-25.55l12.776-25.55c2.99-5.982,9.103-9.76,15.791-9.76h128.246c6.687,0,12.801,3.778,15.791,9.76l12.775,25.55l-12.776,25.55 C196.096,119.808,189.983,123.586,183.295,123.586z"/>
    <g>
      <path id="SVGCleanerId_0_1_" style="fill:#FFC36E;" d="M183.295,123.586H55.05c-6.687,0-12.801-3.778-15.791-9.76l-12.776-25.55l12.776-25.55c2.99-5.982,9.103-9.76,15.791-9.76h128.246c6.687,0,12.801,3.778,15.791,9.76l12.775,25.55l-12.776,25.55 C196.096,119.808,189.983,123.586,183.295,123.586z"/>
    </g>
    <path style="fill:#EFF2FA;" d="M485.517,70.621H26.483c-4.875,0-8.828,3.953-8.828,8.828v44.138h476.69V79.448 C494.345,74.573,490.392,70.621,485.517,70.621z"/>
    <rect x="17.655" y="105.931" style="fill:#E1E6F2;" width="476.69" height="17.655"/>
    <path style="fill:#FFD782;" d="M494.345,88.276H217.318c-3.343,0-6.4,1.889-7.895,4.879l-10.336,20.671c-2.99,5.982-9.105,9.76-15.791,9.76H55.05c-6.687,0-12.801-3.778-15.791-9.76L28.922,93.155c-1.495-2.99-4.552-4.879-7.895-4.879h-3.372C7.904,88.276,0,96.18,0,105.931v335.448c0,9.751,7.904,17.655,17.655,17.655h476.69c9.751,0,17.655-7.904,17.655-17.655 V105.931C512,96.18,504.096,88.276,494.345,88.276z"/>
    <path style="fill:#FFC36E;" d="M485.517,441.379H26.483c-4.875,0-8.828-3.953-8.828-8.828l0,0c0-4.875,3.953-8.828,8.828-8.828h459.034c4.875,0,8.828,3.953,8.828,8.828l0,0C494.345,437.427,490.392,441.379,485.517,441.379z"/>
    <path style="fill:#EFF2FA;" d="M326.621,220.69h132.414c4.875,0,8.828-3.953,8.828-8.828v-70.621c0-4.875-3.953-8.828-8.828-8.828 H326.621c-4.875,0-8.828,3.953-8.828,8.828v70.621C317.793,216.737,321.746,220.69,326.621,220.69z"/>
    <path style="fill:#C7CFE2;" d="M441.379,167.724h-97.103c-4.875,0-8.828-3.953-8.828-8.828l0,0c0-4.875,3.953-8.828,8.828-8.828h97.103c4.875,0,8.828,3.953,8.828,8.828l0,0C450.207,163.772,446.254,167.724,441.379,167.724z"/>
    <path style="fill:#D7DEED;" d="M441.379,203.034h-97.103c-4.875,0-8.828-3.953-8.828-8.828l0,0c0-4.875,3.953-8.828,8.828-8.828h97.103c4.875,0,8.828,3.953,8.828,8.828l0,0C450.207,199.082,446.254,203.034,441.379,203.034z"/>
  </symbol>

  <symbol id="image" height="48" width="48">
    <path d="M11.8 34.15H36.25L28.9 24.35L22.3 32.9L17.65 26.55ZM9 42Q7.8 42 6.9 41.1Q6 40.2 6 39V9Q6 7.8 6.9 6.9Q7.8 6 9 6H39Q40.2 6 41.1 6.9Q42 7.8 42 9V39Q42 40.2 41.1 41.1Q40.2 42 39 42ZM9 39H39Q39 39 39 39Q39 39 39 39V9Q39 9 39 9Q39 9 39 9H9Q9 9 9 9Q9 9 9 9V39Q9 39 9 39Q9 39 9 39ZM9 9Q9 9 9 9Q9 9 9 9V39Q9 39 9 39Q9 39 9 39Q9 39 9 39Q9 39 9 39V9Q9 9 9 9Q9 9 9 9Z"/>
  </symbol>

  <symbol id="listColor" x="0px" y="0px" viewBox="0 0 512 512" style="enable-background:new 0 0 512 512;" xml:space="preserve">
  <g>
      <path style="fill:#A5EB78;" d="M379.586,44.138H194.207c-9.751,0-17.655-7.904-17.655-17.655l0,0
        c0-9.751,7.904-17.655,17.655-17.655h185.379c9.751,0,17.655,7.904,17.655,17.655l0,0
        C397.241,36.234,389.337,44.138,379.586,44.138z"/>
      <path style="fill:#A5EB78;" d="M70.621,0C31.618,0,0,31.618,0,70.621s31.618,70.621,70.621,70.621s70.621-31.618,70.621-70.621
        S109.623,0,70.621,0z M112.172,53.323L65.09,100.401c-1.725,1.725-3.982,2.586-6.241,2.586c-2.259,0-4.518-0.862-6.241-2.586
        L29.069,76.862c-3.448-3.448-3.448-9.035,0-12.483c3.448-3.448,9.035-3.448,12.483,0l17.297,17.299L99.69,40.841
        c3.448-3.448,9.035-3.448,12.483,0C115.622,44.289,115.62,49.875,112.172,53.323z"/>
    </g>
    <g>
      <path style="fill:#AFB9D2;" d="M467.862,88.276H291.31c-4.875,0-8.828-3.953-8.828-8.828c0-4.875,3.953-8.828,8.828-8.828h176.552
        c4.875,0,8.828,3.953,8.828,8.828C476.69,84.323,472.737,88.276,467.862,88.276z"/>
      <path style="fill:#AFB9D2;" d="M256.004,88.276h-70.625c-4.875,0-8.828-3.953-8.828-8.828c0-4.875,3.953-8.828,8.828-8.828h70.625
        c4.875,0,8.828,3.953,8.828,8.828C264.832,84.323,260.879,88.276,256.004,88.276z"/>
    </g>
    <g>
      <path style="fill:#C7CFE2;" d="M503.172,123.586h-52.966c-4.875,0-8.828-3.953-8.828-8.828c0-4.875,3.953-8.828,8.828-8.828h52.966
        c4.875,0,8.828,3.953,8.828,8.828C512,119.634,508.047,123.586,503.172,123.586z"/>
      <path style="fill:#C7CFE2;" d="M414.892,123.586H185.379c-4.875,0-8.828-3.953-8.828-8.828c0-4.875,3.953-8.828,8.828-8.828
        h229.513c4.875,0,8.828,3.953,8.828,8.828C423.72,119.634,419.767,123.586,414.892,123.586z"/>
    </g>
    <g>
      <path style="fill:#A5EB78;" d="M379.586,229.517H194.207c-9.751,0-17.655-7.904-17.655-17.655l0,0
        c0-9.751,7.904-17.655,17.655-17.655h185.379c9.751,0,17.655,7.904,17.655,17.655l0,0
        C397.241,221.613,389.337,229.517,379.586,229.517z"/>
      <path style="fill:#A5EB78;" d="M70.621,185.379C31.618,185.379,0,216.998,0,256s31.618,70.621,70.621,70.621
        s70.621-31.618,70.621-70.621S109.623,185.379,70.621,185.379z M112.172,238.702L65.09,285.78
        c-1.725,1.725-3.982,2.586-6.241,2.586c-2.259,0-4.518-0.862-6.241-2.586l-23.539-23.539c-3.448-3.448-3.448-9.035,0-12.483
        c3.448-3.448,9.035-3.448,12.483,0l17.298,17.298l40.841-40.836c3.448-3.448,9.035-3.448,12.483,0
        C115.623,229.667,115.62,235.254,112.172,238.702z"/>
    </g>
    <g>
      <path style="fill:#AFB9D2;" d="M467.862,273.655H291.31c-4.875,0-8.828-3.953-8.828-8.828S286.435,256,291.31,256h176.552
        c4.875,0,8.828,3.953,8.828,8.828S472.737,273.655,467.862,273.655z"/>
      <path style="fill:#AFB9D2;" d="M256.004,273.655h-70.625c-4.875,0-8.828-3.953-8.828-8.828s3.953-8.828,8.828-8.828h70.625
        c4.875,0,8.828,3.953,8.828,8.828S260.879,273.655,256.004,273.655z"/>
    </g>
    <g>
      <path style="fill:#C7CFE2;" d="M503.172,308.966h-52.966c-4.875,0-8.828-3.953-8.828-8.828s3.953-8.828,8.828-8.828h52.966
        c4.875,0,8.828,3.953,8.828,8.828S508.047,308.966,503.172,308.966z"/>
      <path style="fill:#C7CFE2;" d="M414.892,308.966H185.379c-4.875,0-8.828-3.953-8.828-8.828s3.953-8.828,8.828-8.828h229.513
        c4.875,0,8.828,3.953,8.828,8.828S419.767,308.966,414.892,308.966z"/>
    </g>
    <g>
      <path style="fill:#EFF2FA;" d="M353.103,414.897H194.207c-9.751,0-17.655-7.904-17.655-17.655l0,0
        c0-9.751,7.904-17.655,17.655-17.655h158.897c9.751,0,17.655,7.904,17.655,17.655l0,0
        C370.759,406.993,362.855,414.897,353.103,414.897z"/>
      <path style="fill:#EFF2FA;" d="M70.621,370.759C31.618,370.759,0,402.377,0,441.379S31.618,512,70.621,512
        s70.621-31.618,70.621-70.621S109.623,370.759,70.621,370.759z"/>
    </g>
    <g>
      <path style="fill:#AFB9D2;" d="M467.862,459.034H291.31c-4.875,0-8.828-3.953-8.828-8.828c0-4.875,3.953-8.828,8.828-8.828h176.552
        c4.875,0,8.828,3.953,8.828,8.828C476.69,455.082,472.737,459.034,467.862,459.034z"/>
      <path style="fill:#AFB9D2;" d="M256.004,459.034h-70.625c-4.875,0-8.828-3.953-8.828-8.828c0-4.875,3.953-8.828,8.828-8.828h70.625
        c4.875,0,8.828,3.953,8.828,8.828C264.832,455.082,260.879,459.034,256.004,459.034z"/>
    </g>
    <g>
      <path style="fill:#C7CFE2;" d="M503.172,494.345h-52.966c-4.875,0-8.828-3.953-8.828-8.828s3.953-8.828,8.828-8.828h52.966
        c4.875,0,8.828,3.953,8.828,8.828S508.047,494.345,503.172,494.345z"/>
      <path style="fill:#C7CFE2;" d="M414.892,494.345H185.379c-4.875,0-8.828-3.953-8.828-8.828s3.953-8.828,8.828-8.828h229.513
        c4.875,0,8.828,3.953,8.828,8.828S419.767,494.345,414.892,494.345z"/>
    </g>
  </symbol>
</svg>
